<svg id="Layer_1" data-name="Layer 1" xmlns="http://www.w3.org/2000/svg" viewBox="0 0 258 68"><defs><style>.cls-1{fill:#236eda;}</style></defs><path class="cls-1" d="M61.34,27.15a1.56,1.56,0,0,1-.27-.83,1.23,1.23,0,0,1,.64-1,1.2,1.2,0,0,1,.7-.21,1.38,1.38,0,0,1,1,.46,6.67,6.67,0,0,0,2,1.56,5.87,5.87,0,0,0,2.54.52,4.47,4.47,0,0,0,2-.52,1.77,1.77,0,0,0,.89-1.66,1.74,1.74,0,0,0-.92-1.59,10,10,0,0,0-2.63-1,21.48,21.48,0,0,1-2.85-.95,5.43,5.43,0,0,1-1.93-1.47,4,4,0,0,1-.76-2.54,4,4,0,0,1,.76-2.42,5.46,5.46,0,0,1,2.09-1.62,6.87,6.87,0,0,1,2.84-.58,8,8,0,0,1,2.91.55,5.53,5.53,0,0,1,2.39,1.68,1.36,1.36,0,0,1,.37.89,1.34,1.34,0,0,1-.49.95,1.14,1.14,0,0,1-.77.28,1.19,1.19,0,0,1-.89-.37,4.09,4.09,0,0,0-1.59-1.13,5,5,0,0,0-2-.4,3.81,3.81,0,0,0-2,.49,1.67,1.67,0,0,0-.79,1.59,1.79,1.79,0,0,0,.91,1.59,11.88,11.88,0,0,0,2.79,1A17,17,0,0,1,71,21.3a4.68,4.68,0,0,1,1.81,1.47,4,4,0,0,1,.74,2.51,4,4,0,0,1-.83,2.51,5.46,5.46,0,0,1-2.18,1.62,7.11,7.11,0,0,1-2.81.55,9.35,9.35,0,0,1-3.58-.67A6.66,6.66,0,0,1,61.34,27.15Z"/><path class="cls-1" d="M90.93,21a1.33,1.33,0,0,1-.46.95,1.47,1.47,0,0,1-1,.37H78.69a5.32,5.32,0,0,0,1.68,3.58A5.24,5.24,0,0,0,84,27.27a5.62,5.62,0,0,0,2.39-.43A5.87,5.87,0,0,0,88,25.74a1.81,1.81,0,0,1,.89-.28,1.13,1.13,0,0,1,.86.37,1.21,1.21,0,0,1,.37.86,1.5,1.5,0,0,1-.62,1.16,7.21,7.21,0,0,1-2.35,1.5,7.7,7.7,0,0,1-3,.61,8.87,8.87,0,0,1-4.38-1A7.32,7.32,0,0,1,76.88,26a8.81,8.81,0,0,1-1-4.23,9.4,9.4,0,0,1,1-4.5,7.72,7.72,0,0,1,2.79-3,7.21,7.21,0,0,1,7.41,0A7.64,7.64,0,0,1,89.86,17,7.92,7.92,0,0,1,90.93,21Zm-7.5-5.08a4.48,4.48,0,0,0-4.62,4h9v-.24A3.74,3.74,0,0,0,86.37,17,4.57,4.57,0,0,0,83.43,15.94Z"/><path class="cls-1" d="M102.36,13.34a6.91,6.91,0,0,1,3.77,1.07,7.16,7.16,0,0,1,2.63,2.94,9.28,9.28,0,0,1,1,4.29,9.21,9.21,0,0,1-1,4.28,7.29,7.29,0,0,1-2.63,2.94,6.72,6.72,0,0,1-3.71,1.07,6.43,6.43,0,0,1-3-.7,7.26,7.26,0,0,1-2.23-1.71v6.79a1.39,1.39,0,0,1-.43,1,1.34,1.34,0,0,1-1,.43,1.42,1.42,0,0,1-1.44-1.47V15.05a1.51,1.51,0,0,1,.4-1.07,1.36,1.36,0,0,1,1-.43,1.38,1.38,0,0,1,1,.43,1.46,1.46,0,0,1,.43,1.07v.89a6,6,0,0,1,2.14-1.83A6.2,6.2,0,0,1,102.36,13.34ZM102,27.24a4.68,4.68,0,0,0,2.54-.73,4.94,4.94,0,0,0,1.74-2,6.35,6.35,0,0,0,.64-2.88,6.16,6.16,0,0,0-.64-2.85,4.84,4.84,0,0,0-1.74-2A4.6,4.6,0,0,0,102,16a4.66,4.66,0,0,0-2.58.74,4.84,4.84,0,0,0-1.77,2,7.1,7.1,0,0,0,0,5.76,5.12,5.12,0,0,0,1.77,2A4.8,4.8,0,0,0,102,27.24Z"/><path class="cls-1" d="M115.87,28.19a1.4,1.4,0,0,1-.43,1,1.33,1.33,0,0,1-1,.43,1.4,1.4,0,0,1-1-.43,1.5,1.5,0,0,1-.4-1V14.93a1.5,1.5,0,0,1,.4-1,1.44,1.44,0,0,1,1-.43,1.36,1.36,0,0,1,1,.43,1.4,1.4,0,0,1,.43,1ZM114.4,11.44a2.13,2.13,0,0,1-1.28-.3,1.36,1.36,0,0,1-.37-1.05V9.61a1.25,1.25,0,0,1,.4-1,2.22,2.22,0,0,1,1.28-.3,1.85,1.85,0,0,1,1.23.33,1.24,1.24,0,0,1,.4,1v.48a1.28,1.28,0,0,1-.4,1.05A2.13,2.13,0,0,1,114.4,11.44Z"/><path class="cls-1" d="M127,13.25a9.22,9.22,0,0,1,4,.76c1.09.51,1.63,1.17,1.63,2a1.51,1.51,0,0,1-.34,1,1.07,1.07,0,0,1-.86.4,1.46,1.46,0,0,1-.64-.12c-.14-.08-.35-.22-.61-.4a3.78,3.78,0,0,0-.58-.43,4.21,4.21,0,0,0-1-.3,6.11,6.11,0,0,0-1.22-.13,5.39,5.39,0,0,0-2.82.74,4.93,4.93,0,0,0-1.89,2.05,6.12,6.12,0,0,0-.68,2.88,6.55,6.55,0,0,0,.64,2.91,5.2,5.2,0,0,0,1.87,2,5.12,5.12,0,0,0,2.73.73,5.71,5.71,0,0,0,2.57-.49,5.74,5.74,0,0,0,.58-.4,4.17,4.17,0,0,1,.52-.36,1.34,1.34,0,0,1,1.53.27,1.31,1.31,0,0,1,.37,1,1.75,1.75,0,0,1-.83,1.29,6.76,6.76,0,0,1-2.17,1,10.44,10.44,0,0,1-2.91.39,7.72,7.72,0,0,1-4.1-1.07,7.47,7.47,0,0,1-2.76-3,9.57,9.57,0,0,1-1-4.28,9,9,0,0,1,1-4.26,7.49,7.49,0,0,1,2.82-3A7.8,7.8,0,0,1,127,13.25Z"/><path class="cls-1" d="M68.32,38.22a.57.57,0,0,1,.4.18.58.58,0,0,1,.18.4.6.6,0,0,1-.18.43.55.55,0,0,1-.4.15H65v10.9a2.65,2.65,0,0,0,.46,1.81,1.84,1.84,0,0,0,1.23.43,1.29,1.29,0,0,0,.33-.06,1.46,1.46,0,0,1,.4-.07.48.48,0,0,1,.37.19.5.5,0,0,1,.15.37c0,.18-.12.34-.36.49a2,2,0,0,1-.86.18,7.8,7.8,0,0,1-1.29-.09,2.26,2.26,0,0,1-1.1-.83,4,4,0,0,1-.55-2.36v-11H61.22a.62.62,0,0,1-.58-.58.55.55,0,0,1,.15-.4.58.58,0,0,1,.43-.18h2.51V34.33a.61.61,0,0,1,.61-.61.54.54,0,0,1,.43.18.6.6,0,0,1,.18.43v3.89Z"/><path class="cls-1" d="M84.26,49.94a.47.47,0,0,1,.36.19.47.47,0,0,1,.16.37.56.56,0,0,1-.12.36,8.13,8.13,0,0,1-2.52,2.21,6.37,6.37,0,0,1-3.21.85,8.3,8.3,0,0,1-4.07-1,7.13,7.13,0,0,1-2.79-2.79,8.71,8.71,0,0,1-1-4.2,9.22,9.22,0,0,1,1-4.28,7.08,7.08,0,0,1,2.57-2.85,6.42,6.42,0,0,1,3.4-1,7.13,7.13,0,0,1,3.34.8A6.15,6.15,0,0,1,83.89,41a7.57,7.57,0,0,1,1,3.86.69.69,0,0,1-.18.46.61.61,0,0,1-.43.18h-12v.4a7.93,7.93,0,0,0,.76,3.49,5.9,5.9,0,0,0,2.27,2.48,6.71,6.71,0,0,0,3.61.92,5.66,5.66,0,0,0,2.76-.7,5.83,5.83,0,0,0,2-1.84A.64.64,0,0,1,84.26,49.94ZM78,39.08a5.1,5.1,0,0,0-2.33.61,6.25,6.25,0,0,0-2.08,1.77,6.56,6.56,0,0,0-1.19,2.85H83.68V44a5.16,5.16,0,0,0-1-2.67,5.42,5.42,0,0,0-2.09-1.71A5.86,5.86,0,0,0,78,39.08Z"/><path class="cls-1" d="M95.58,37.85a10.1,10.1,0,0,1,2.54.31,5.87,5.87,0,0,1,2,.82c.51.33.77.68.77,1.05a.55.55,0,0,1-.19.42.47.47,0,0,1-.39.19.83.83,0,0,1-.43-.09c-.08-.07-.21-.18-.37-.34a2.64,2.64,0,0,0-.83-.67A7.42,7.42,0,0,0,95.55,39a6.11,6.11,0,0,0-3.24.91A6.87,6.87,0,0,0,90,42.44a7,7,0,0,0-.86,3.43,7.82,7.82,0,0,0,.8,3.55,6.08,6.08,0,0,0,2.29,2.45,6.43,6.43,0,0,0,3.37.89,7,7,0,0,0,1.93-.21,7.22,7.22,0,0,0,1.41-.62,4.41,4.41,0,0,0,.85-.67,2,2,0,0,1,.31-.24.45.45,0,0,1,.31-.13.44.44,0,0,1,.36.16.51.51,0,0,1,.16.4c0,.28-.24.63-.71,1a6.48,6.48,0,0,1-2,1,8.4,8.4,0,0,1-2.75.42,7.5,7.5,0,0,1-3.95-1A7.39,7.39,0,0,1,88.81,50a9,9,0,0,1-.94-4.14,8.58,8.58,0,0,1,.94-4A7.87,7.87,0,0,1,91.54,39,7.53,7.53,0,0,1,95.58,37.85Z"/><path class="cls-1" d="M111.31,38.16a5,5,0,0,1,4,1.68,6.28,6.28,0,0,1,1.41,4.23V53a.59.59,0,0,1-.19.43.58.58,0,0,1-.42.18.62.62,0,0,1-.46-.18.64.64,0,0,1-.16-.43V44.07a5.33,5.33,0,0,0-1-3.43,3.79,3.79,0,0,0-3.18-1.32,5.83,5.83,0,0,0-2.6.64,5.74,5.74,0,0,0-2.06,1.75,3.94,3.94,0,0,0-.79,2.36V53a.59.59,0,0,1-.19.43.58.58,0,0,1-.42.18.62.62,0,0,1-.46-.18.64.64,0,0,1-.16-.43V31.58a.59.59,0,0,1,.19-.43.56.56,0,0,1,.43-.19.5.5,0,0,1,.42.19.56.56,0,0,1,.19.43v9.67a6.59,6.59,0,0,1,2.36-2.2A6,6,0,0,1,111.31,38.16Z"/><path class="cls-1" d="M128.77,37.85a5.1,5.1,0,0,1,4.11,1.62,6.15,6.15,0,0,1,1.38,4.17V53a.63.63,0,0,1-.19.43.58.58,0,0,1-.43.18.65.65,0,0,1-.46-.18A.68.68,0,0,1,133,53V43.76a5.14,5.14,0,0,0-1.1-3.4A3.94,3.94,0,0,0,128.65,39a6,6,0,0,0-2.66.64,5.9,5.9,0,0,0-2.11,1.74,3.88,3.88,0,0,0-.83,2.36V53a.63.63,0,0,1-1.07.43.68.68,0,0,1-.15-.43V39a.58.58,0,0,1,.18-.42.56.56,0,0,1,.43-.19.53.53,0,0,1,.43.19.58.58,0,0,1,.18.42V41a6.82,6.82,0,0,1,2.48-2.27A6.71,6.71,0,0,1,128.77,37.85Z"/><path class="cls-1" d="M153.37,45.9a8.66,8.66,0,0,1-1,4.11,7.53,7.53,0,0,1-2.73,2.87,7.16,7.16,0,0,1-3.82,1,7.33,7.33,0,0,1-3.86-1,7.85,7.85,0,0,1-2.73-2.9,9,9,0,0,1,0-8.18A7.72,7.72,0,0,1,142,38.92a7.43,7.43,0,0,1,7.68,0,7.35,7.35,0,0,1,2.73,2.88A8.62,8.62,0,0,1,153.37,45.9Zm-1.23,0a7.43,7.43,0,0,0-.82-3.52,6.1,6.1,0,0,0-2.24-2.45,5.91,5.91,0,0,0-3.24-.91,6,6,0,0,0-3.25.91,6.29,6.29,0,0,0-2.26,2.45,7.32,7.32,0,0,0-.83,3.52,7.23,7.23,0,0,0,.83,3.49,6.44,6.44,0,0,0,2.26,2.48,6.09,6.09,0,0,0,3.25.89,6,6,0,0,0,5.48-3.34A7.51,7.51,0,0,0,152.14,45.9Z"/><path class="cls-1" d="M158.75,53a.61.61,0,0,1-.18.43.6.6,0,0,1-.43.18.63.63,0,0,1-.46-.18.68.68,0,0,1-.15-.43V31.58a.58.58,0,0,1,.18-.43.57.57,0,0,1,.43-.19.51.51,0,0,1,.43.19.58.58,0,0,1,.18.43Z"/><path class="cls-1" d="M177.7,45.9a8.66,8.66,0,0,1-1,4.11A7.6,7.6,0,0,1,174,52.88a7.17,7.17,0,0,1-3.83,1,7.29,7.29,0,0,1-3.85-1,7.69,7.69,0,0,1-2.73-2.9,9,9,0,0,1,0-8.18,7.57,7.57,0,0,1,2.73-2.88,7.43,7.43,0,0,1,7.68,0,7.42,7.42,0,0,1,2.73,2.88A8.62,8.62,0,0,1,177.7,45.9Zm-1.22,0a7.43,7.43,0,0,0-.83-3.52,6.07,6.07,0,0,0-2.23-2.45,5.92,5.92,0,0,0-3.25-.91,6,6,0,0,0-3.24.91,6.31,6.31,0,0,0-2.27,2.45,7.43,7.43,0,0,0-.82,3.52,7.34,7.34,0,0,0,.82,3.49,6.47,6.47,0,0,0,2.27,2.48,6.08,6.08,0,0,0,3.24.89,6,6,0,0,0,5.48-3.34A7.52,7.52,0,0,0,176.48,45.9Z"/><path class="cls-1" d="M194.85,38.34a.53.53,0,0,1,.43.19.58.58,0,0,1,.18.42V52.12a8.24,8.24,0,0,1-1,4,6.48,6.48,0,0,1-2.66,2.63,7.9,7.9,0,0,1-3.92,1,9.66,9.66,0,0,1-2.48-.33,7.23,7.23,0,0,1-2.09-.83c-.53-.33-.79-.66-.79-1a.62.62,0,0,1,.12-.4.55.55,0,0,1,.4-.15,1.07,1.07,0,0,1,.55.3,3,3,0,0,0,1,.65,9.08,9.08,0,0,0,3.4.61,6,6,0,0,0,4.56-1.78,6.52,6.52,0,0,0,1.68-4.68V50A5.89,5.89,0,0,1,191.66,53a7.33,7.33,0,0,1-7.41-.07,7.6,7.6,0,0,1-2.66-2.9,9.34,9.34,0,0,1,0-8.21,7.47,7.47,0,0,1,2.66-2.88,7.23,7.23,0,0,1,3.8-1,6.68,6.68,0,0,1,3.73,1.1,6.34,6.34,0,0,1,2.45,2.61V39a.6.6,0,0,1,.16-.42A.59.59,0,0,1,194.85,38.34Zm-6.74,14.42a5.9,5.9,0,0,0,3.18-.86,6,6,0,0,0,2.24-2.44,8.16,8.16,0,0,0,0-7.17,5.83,5.83,0,0,0-2.24-2.42,6.33,6.33,0,0,0-6.39,0,6.32,6.32,0,0,0-2.24,2.45,8.14,8.14,0,0,0,0,7,6.55,6.55,0,0,0,2.24,2.48A5.93,5.93,0,0,0,188.11,52.76Z"/><path class="cls-1" d="M201.77,53a.61.61,0,0,1-.18.43.6.6,0,0,1-.43.18.63.63,0,0,1-.46-.18.68.68,0,0,1-.15-.43V38.46a.63.63,0,0,1,.61-.61.51.51,0,0,1,.43.19.58.58,0,0,1,.18.42Zm-.61-17.24a1.13,1.13,0,0,1-.8-.28.94.94,0,0,1-.27-.7v-.24a.91.91,0,0,1,.3-.71,1.17,1.17,0,0,1,.8-.27.94.94,0,0,1,.7.27.89.89,0,0,1,.31.71v.24a.87.87,0,0,1-.31.7A1,1,0,0,1,201.16,35.77Z"/><path class="cls-1" d="M219,49.94a.48.48,0,0,1,.37.19.5.5,0,0,1,.15.37.56.56,0,0,1-.12.36,8.21,8.21,0,0,1-2.51,2.21,6.38,6.38,0,0,1-3.22.85,8.3,8.3,0,0,1-4.07-1,7.19,7.19,0,0,1-2.79-2.79,8.71,8.71,0,0,1-1-4.2,9.22,9.22,0,0,1,.95-4.28,7.1,7.1,0,0,1,2.58-2.85,6.38,6.38,0,0,1,3.39-1,7.13,7.13,0,0,1,3.34.8A6.15,6.15,0,0,1,218.58,41a7.48,7.48,0,0,1,1,3.86.69.69,0,0,1-.18.46.6.6,0,0,1-.43.18H207v.4a7.93,7.93,0,0,0,.76,3.49A5.9,5.9,0,0,0,210,51.84a6.71,6.71,0,0,0,3.61.92,5.66,5.66,0,0,0,2.76-.7,5.74,5.74,0,0,0,2.05-1.84A.66.66,0,0,1,219,49.94ZM212.7,39.08a5,5,0,0,0-2.32.61,6.19,6.19,0,0,0-2.09,1.77,6.68,6.68,0,0,0-1.19,2.85h11.27V44a5.08,5.08,0,0,0-1-2.67,5.39,5.39,0,0,0-2.08-1.71A5.93,5.93,0,0,0,212.7,39.08Z"/><path class="cls-1" d="M222.77,51.17a1.14,1.14,0,0,1-.21-.58.5.5,0,0,1,.24-.4.51.51,0,0,1,.37-.15.59.59,0,0,1,.49.24,5.69,5.69,0,0,0,5,2.54,5.13,5.13,0,0,0,2.85-.79,2.56,2.56,0,0,0,1.22-2.21,2.36,2.36,0,0,0-1.07-2.11,9.31,9.31,0,0,0-2.94-1.16,11.68,11.68,0,0,1-3.92-1.63,3.39,3.39,0,0,1-1.41-2.9,3.64,3.64,0,0,1,1.44-3,5.61,5.61,0,0,1,3.71-1.2,6.6,6.6,0,0,1,2.48.49,6.3,6.3,0,0,1,2.26,1.56.55.55,0,0,1,.22.43.64.64,0,0,1-.22.49.93.93,0,0,1-.4.12.45.45,0,0,1-.36-.18A5.31,5.31,0,0,0,228.37,39a4.65,4.65,0,0,0-2.75.79,2.55,2.55,0,0,0,.09,4.26A12.23,12.23,0,0,0,229,45.32a13.79,13.79,0,0,1,2.57.89,3.93,3.93,0,0,1,1.65,1.32,3.73,3.73,0,0,1,.62,2.23,3.62,3.62,0,0,1-1.5,3.06,6.27,6.27,0,0,1-3.86,1.1A7,7,0,0,1,222.77,51.17Z"/><path class="cls-1" d="M24.14,25.3a13.79,13.79,0,0,1,13.8-13.79h1.45a13.81,13.81,0,0,1,13.38,10.4.69.69,0,0,1-.69.85H44.32a.81.81,0,0,1-.71-.47,5.44,5.44,0,1,0,0,4.58.8.8,0,0,1,.71-.48h8.14a.73.73,0,0,1,.73.73V41.28a13.8,13.8,0,0,1-13.8,13.79H37.94a13.79,13.79,0,0,1-13.37-10.4.68.68,0,0,1,.68-.85H33a.77.77,0,0,1,.7.47,5.44,5.44,0,1,0,0-4.58.78.78,0,0,1-.7.48H24.87a.73.73,0,0,1-.73-.73Z"/><path class="cls-1" d="M38.67,22a2.55,2.55,0,1,0,2.54,2.55A2.54,2.54,0,0,0,38.67,22Z"/><path class="cls-1" d="M41.21,42a2.54,2.54,0,1,1-2.54-2.54A2.54,2.54,0,0,1,41.21,42Z"/></svg>